HIERARCHY
ROOT mixamorig:Hips
{
	OFFSET 0.000000 201.639420 0.000000
	CHANNELS 6 Xposition Yposition Zposition Xrotation Yrotation Zrotation
	JOINT mixamorig:Spine
	{
		OFFSET 0.006200 19.524994 -2.481800
		CHANNELS 3 Xrotation Yrotation Zrotation
		JOINT mixamorig:Spine1
		{
			OFFSET -0.000900 22.835007 -2.825400
			CHANNELS 3 Xrotation Yrotation Zrotation
			JOINT mixamorig:Spine2
			{
				OFFSET -0.020600 26.552490 -3.193300
				CHANNELS 3 Xrotation Yrotation Zrotation
				JOINT mixamorig:Neck
				{
					OFFSET -0.060000 30.701813 1.352200
					CHANNELS 3 Xrotation Yrotation Zrotation
					JOINT mixamorig:Head
					{
						OFFSET -0.087200 22.547607 3.670900
						CHANNELS 3 Xrotation Yrotation Zrotation
						JOINT mixamorig:HeadTop_End
						{
							OFFSET -0.830600 40.355194 7.893500
							CHANNELS 3 Xrotation Yrotation Zrotation
							End Site
							{
								OFFSET 0.000000 30.592346 0.000000
							}
						}
						JOINT mixamorig:RightEye
						{
							OFFSET -6.302100 18.118591 16.197100
							CHANNELS 3 Xrotation Yrotation Zrotation
							End Site
							{
								OFFSET 0.000000 30.592346 0.000000
							}
						}
						JOINT mixamorig:LeftEye
						{
							OFFSET 6.741500 18.382690 16.401899
							CHANNELS 3 Xrotation Yrotation Zrotation
							End Site
							{
								OFFSET 0.000000 30.592346 0.000000
							}
						}
					}
				}
				JOINT mixamorig:LeftShoulder
				{
					OFFSET 11.924900 18.230499 1.425400
					CHANNELS 3 Xrotation Yrotation Zrotation
					JOINT mixamorig:LeftArm
					{
						OFFSET 25.435989 -0.697632 -5.229300
						CHANNELS 3 Xrotation Yrotation Zrotation
						JOINT mixamorig:LeftForeArm
						{
							OFFSET 54.684776 0.000000 0.000000
							CHANNELS 3 Xrotation Yrotation Zrotation
							JOINT mixamorig:LeftHand
							{
								OFFSET 55.098175 0.000000 0.000000
								CHANNELS 3 Xrotation Yrotation Zrotation
								JOINT mixamorig:LeftHandMiddle1
								{
									OFFSET 23.369751 0.000000 0.000000
									CHANNELS 3 Xrotation Yrotation Zrotation
									JOINT mixamorig:LeftHandMiddle2
									{
										OFFSET 6.378677 0.000000 0.000000
										CHANNELS 3 Xrotation Yrotation Zrotation
										JOINT mixamorig:LeftHandMiddle3
										{
											OFFSET 6.148331 0.000000 0.000000
											CHANNELS 3 Xrotation Yrotation Zrotation
											JOINT mixamorig:LeftHandMiddle4
											{
												OFFSET 6.582504 0.000000 0.000000
												CHANNELS 3 Xrotation Yrotation Zrotation
												End Site
												{
													OFFSET -1.168900 6.395691 1.028606
												}
											}
										}
									}
								}
								JOINT mixamorig:LeftHandThumb1
								{
									OFFSET 7.235672 -3.848206 5.434273
									CHANNELS 3 Xrotation Yrotation Zrotation
									JOINT mixamorig:LeftHandThumb2
									{
										OFFSET 6.568451 -3.792297 3.792300
										CHANNELS 3 Xrotation Yrotation Zrotation
										JOINT mixamorig:LeftHandThumb3
										{
											OFFSET 6.063080 -3.500519 3.500518
											CHANNELS 3 Xrotation Yrotation Zrotation
											JOINT mixamorig:LeftHandThumb4
											{
												OFFSET 4.793182 -2.767334 2.767349
												CHANNELS 3 Xrotation Yrotation Zrotation
												End Site
												{
													OFFSET 0.101639 6.054260 1.275483
												}
											}
										}
									}
								}
								JOINT mixamorig:LeftHandIndex1
								{
									OFFSET 23.101074 -0.309540 4.992809
									CHANNELS 3 Xrotation Yrotation Zrotation
									JOINT mixamorig:LeftHandIndex2
									{
										OFFSET 6.226883 0.000000 0.000000
										CHANNELS 3 Xrotation Yrotation Zrotation
										JOINT mixamorig:LeftHandIndex3
										{
											OFFSET 6.094330 0.000000 0.000000
											CHANNELS 3 Xrotation Yrotation Zrotation
											JOINT mixamorig:LeftHandIndex4
											{
												OFFSET 5.482605 0.000000 0.000000
												CHANNELS 3 Xrotation Yrotation Zrotation
												End Site
												{
													OFFSET -1.427902 5.233032 0.797164
												}
											}
										}
									}
								}
								JOINT mixamorig:LeftHandRing1
								{
									OFFSET 22.299240 0.021149 -3.964172
									CHANNELS 3 Xrotation Yrotation Zrotation
									JOINT mixamorig:LeftHandRing2
									{
										OFFSET 6.321869 0.000000 0.000000
										CHANNELS 3 Xrotation Yrotation Zrotation
										JOINT mixamorig:LeftHandRing3
										{
											OFFSET 5.899796 0.000000 0.000000
											CHANNELS 3 Xrotation Yrotation Zrotation
											JOINT mixamorig:LeftHandRing4
											{
												OFFSET 6.517899 0.000000 0.000000
												CHANNELS 3 Xrotation Yrotation Zrotation
												End Site
												{
													OFFSET -1.637299 6.232208 0.980890
												}
											}
										}
									}
								}
								JOINT mixamorig:LeftHandPinky1
								{
									OFFSET 20.463791 -0.302338 -8.562233
									CHANNELS 3 Xrotation Yrotation Zrotation
									JOINT mixamorig:LeftHandPinky2
									{
										OFFSET 6.908646 0.000000 0.000000
										CHANNELS 3 Xrotation Yrotation Zrotation
										JOINT mixamorig:LeftHandPinky3
										{
											OFFSET 4.622849 0.000000 0.000000
											CHANNELS 3 Xrotation Yrotation Zrotation
											JOINT mixamorig:LeftHandPinky4
											{
												OFFSET 5.216080 0.000000 0.000000
												CHANNELS 3 Xrotation Yrotation Zrotation
												End Site
												{
													OFFSET -0.606308 5.116241 0.814926
												}
											}
										}
									}
								}
							}
						}
					}
				}
				JOINT mixamorig:RightShoulder
				{
					OFFSET -12.001300 18.284088 1.348900
					CHANNELS 3 Xrotation Yrotation Zrotation
					JOINT mixamorig:RightArm
					{
						OFFSET -25.308500 -0.751312 -5.164599
						CHANNELS 3 Xrotation Yrotation Zrotation
						JOINT mixamorig:RightForeArm
						{
							OFFSET -54.684429 0.000000 0.000000
							CHANNELS 3 Xrotation Yrotation Zrotation
							JOINT mixamorig:RightHand
							{
								OFFSET -55.150291 0.000000 0.000000
								CHANNELS 3 Xrotation Yrotation Zrotation
								JOINT mixamorig:RightHandMiddle1
								{
									OFFSET -23.317566 0.000000 0.000000
									CHANNELS 3 Xrotation Yrotation Zrotation
									JOINT mixamorig:RightHandMiddle2
									{
										OFFSET -6.378403 0.000000 0.000000
										CHANNELS 3 Xrotation Yrotation Zrotation
										JOINT mixamorig:RightHandMiddle3
										{
											OFFSET -6.148193 0.000000 0.000000
											CHANNELS 3 Xrotation Yrotation Zrotation
											JOINT mixamorig:RightHandMiddle4
											{
												OFFSET -6.583389 0.000000 0.000000
												CHANNELS 3 Xrotation Yrotation Zrotation
												End Site
												{
													OFFSET 1.171692 6.395905 1.029786
												}
											}
										}
									}
								}
								JOINT mixamorig:RightHandThumb1
								{
									OFFSET -7.190521 -3.860474 5.435846
									CHANNELS 3 Xrotation Yrotation Zrotation
									JOINT mixamorig:RightHandThumb2
									{
										OFFSET -6.567429 -3.791718 3.791708
										CHANNELS 3 Xrotation Yrotation Zrotation
										JOINT mixamorig:RightHandThumb3
										{
											OFFSET -6.062469 -3.500153 3.500166
											CHANNELS 3 Xrotation Yrotation Zrotation
											JOINT mixamorig:RightHandThumb4
											{
												OFFSET -4.792618 -2.767029 2.767022
												CHANNELS 3 Xrotation Yrotation Zrotation
												End Site
												{
													OFFSET -0.100327 6.053253 1.276754
												}
											}
										}
									}
								}
								JOINT mixamorig:RightHandIndex1
								{
									OFFSET -23.048981 -0.310791 4.992554
									CHANNELS 3 Xrotation Yrotation Zrotation
									JOINT mixamorig:RightHandIndex2
									{
										OFFSET -6.227539 0.000000 0.000000
										CHANNELS 3 Xrotation Yrotation Zrotation
										JOINT mixamorig:RightHandIndex3
										{
											OFFSET -6.095047 0.000000 0.000000
											CHANNELS 3 Xrotation Yrotation Zrotation
											JOINT mixamorig:RightHandIndex4
											{
												OFFSET -5.484772 0.000000 0.000000
												CHANNELS 3 Xrotation Yrotation Zrotation
												End Site
												{
													OFFSET 1.420593 5.237305 0.797056
												}
											}
										}
									}
								}
								JOINT mixamorig:RightHandRing1
								{
									OFFSET -22.246323 0.020569 -3.963762
									CHANNELS 3 Xrotation Yrotation Zrotation
									JOINT mixamorig:RightHandRing2
									{
										OFFSET -6.322128 0.000000 0.000000
										CHANNELS 3 Xrotation Yrotation Zrotation
										JOINT mixamorig:RightHandRing3
										{
											OFFSET -5.900024 0.000000 0.000000
											CHANNELS 3 Xrotation Yrotation Zrotation
											JOINT mixamorig:RightHandRing4
											{
												OFFSET -6.518356 0.000000 0.000000
												CHANNELS 3 Xrotation Yrotation Zrotation
												End Site
												{
													OFFSET 1.636398 6.232697 0.982186
												}
											}
										}
									}
								}
								JOINT mixamorig:RightHandPinky1
								{
									OFFSET -20.411011 -0.303314 -8.561701
									CHANNELS 3 Xrotation Yrotation Zrotation
									JOINT mixamorig:RightHandPinky2
									{
										OFFSET -6.907349 0.000000 0.000000
										CHANNELS 3 Xrotation Yrotation Zrotation
										JOINT mixamorig:RightHandPinky3
										{
											OFFSET -4.623840 0.000000 0.000000
											CHANNELS 3 Xrotation Yrotation Zrotation
											JOINT mixamorig:RightHandPinky4
											{
												OFFSET -5.218353 0.000000 0.000000
												CHANNELS 3 Xrotation Yrotation Zrotation
												End Site
												{
													OFFSET 0.602097 5.118835 0.816273
												}
											}
										}
									}
								}
							}
						}
					}
				}
			}
		}
	}
	JOINT mixamorig:LeftUpLeg
	{
		OFFSET 18.168400 -13.561905 -0.039000
		CHANNELS 3 Xrotation Yrotation Zrotation
		JOINT mixamorig:LeftLeg
		{
			OFFSET 0.577358 -80.825211 -3.695000
			CHANNELS 3 Xrotation Yrotation Zrotation
			JOINT mixamorig:LeftFoot
			{
				OFFSET -0.577356 -83.370262 -6.520700
				CHANNELS 3 Xrotation Yrotation Zrotation
				JOINT mixamorig:LeftToeBase
				{
					OFFSET 0.750401 -20.798306 25.135401
					CHANNELS 3 Xrotation Yrotation Zrotation
					JOINT mixamorig:LeftToe_End
					{
						OFFSET -0.000500 0.001200 19.917799
						CHANNELS 3 Xrotation Yrotation Zrotation
						End Site
						{
							OFFSET 0.000000 19.917805 0.000000
						}
					}
				}
			}
		}
	}
	JOINT mixamorig:RightUpLeg
	{
		OFFSET -18.162500 -13.585098 -0.041000
		CHANNELS 3 Xrotation Yrotation Zrotation
		JOINT mixamorig:RightLeg
		{
			OFFSET -0.595024 -80.945297 -3.631900
			CHANNELS 3 Xrotation Yrotation Zrotation
			JOINT mixamorig:RightFoot
			{
				OFFSET 0.595024 -83.218193 -6.561200
				CHANNELS 3 Xrotation Yrotation Zrotation
				JOINT mixamorig:RightToeBase
				{
					OFFSET -0.753601 -20.807106 25.115000
					CHANNELS 3 Xrotation Yrotation Zrotation
					JOINT mixamorig:RightToe_End
					{
						OFFSET 0.000299 0.001700 19.918200
						CHANNELS 3 Xrotation Yrotation Zrotation
						End Site
						{
							OFFSET 0.000000 19.918203 0.000000
						}
					}
				}
			}
		}
	}
}
MOTION
Frames: 6
Frame Time: 0.033333
0.363057 191.222656 -2.028897 -2.442930 -15.520360 -1.262572 1.754635 2.522185 -0.388958 1.234464 2.130354 -0.455182 1.192814 2.155021 -0.473825 1.264656 0.039040 3.848131 23.692639 6.405950 2.024539 0.000002 0.000000 0.000000 0.000002 0.000000 0.000000 0.000002 0.000000 0.000000 2.194912 -7.876446 1.163898 -36.060861 -70.759954 -56.694545 0.000002 -23.453391 0.000002 -99.162080 -4.780373 -9.558237 1.882371 4.734916 -43.341751 1.885023 4.737724 -43.373945 0.487081 2.548179 -21.639952 0.000001 -0.000001 0.000004 -1.540052 3.690173 6.142346 3.939033 7.948720 0.746812 -0.579465 1.575001 2.538727 0.000001 0.000004 -0.000002 1.883704 4.736319 -43.357843 1.883695 4.736314 -43.357853 0.487078 2.548188 -21.639943 -0.000002 -0.000001 -0.000001 1.883703 4.736336 -43.357836 1.883717 4.736326 -43.357850 0.487075 2.548179 -21.639957 0.000001 0.000001 -0.000002 4.677938 7.689763 -43.149986 1.901466 0.667364 -43.734220 0.487087 2.548190 -21.639957 0.000001 -0.000001 0.000001 -0.054183 -8.599773 9.638377 -4.276625 99.774556 17.456811 0.000007 21.429430 -0.000010 -51.511156 -15.347865 -13.936321 4.038195 -6.312190 65.186472 4.038190 -6.312206 65.186465 1.091134 -3.744492 32.481876 -0.000004 0.000001 -0.000003 -1.849241 -3.581796 -6.586143 4.637203 -8.634119 -0.225398 -1.273750 0.137311 -2.094868 0.000000 -0.000002 0.000000 4.038197 -6.312188 65.186465 4.038173 -6.312168 65.186478 1.091140 -3.744489 32.481859 0.000002 -0.000001 -0.000002 4.038197 -6.312200 65.186465 4.038187 -6.312213 65.186458 1.091133 -3.744484 32.481870 0.000002 0.000000 -0.000001 4.038186 -6.312184 65.186472 4.038194 -6.312201 65.186465 1.091130 -3.744477 32.481866 -0.000002 0.000000 0.000001 -29.056615 22.058552 11.542396 35.592481 7.146379 10.282172 -7.072683 0.870404 -9.324810 -0.000066 0.000005 -0.000001 0.000000 0.000002 0.000000 -25.002155 -21.704395 -8.850840 36.366909 -4.723728 -10.264620 -10.845735 -1.274754 9.738568 -0.000004 -0.000003 0.000003 -0.000000 0.000002 -0.000000 
0.350568 191.211746 -2.026960 -2.404936 -15.512872 -1.249944 1.747812 2.520337 -0.395762 1.224716 2.125673 -0.454794 1.182850 2.150213 -0.473802 1.281062 0.025430 3.876240 23.590126 6.380495 1.990666 -0.000001 -0.000000 0.000000 -0.000001 -0.000000 0.000000 -0.000001 -0.000000 0.000000 2.194613 -7.868731 1.180476 -36.486454 -70.521102 -57.120175 0.000014 -23.463815 0.000005 -99.225450 -4.851358 -9.716968 1.882370 4.734916 -43.341754 1.885026 4.737725 -43.373945 0.487081 2.548181 -21.639955 -0.000000 0.000001 0.000004 -1.540053 3.690173 6.142342 3.939036 7.948718 0.746806 -0.579465 1.574999 2.538725 0.000000 0.000003 -0.000002 1.883699 4.736320 -43.357846 1.883700 4.736316 -43.357860 0.487076 2.548186 -21.639941 0.000001 0.000003 -0.000004 1.883701 4.736338 -43.357846 1.883713 4.736328 -43.357853 0.487075 2.548179 -21.639957 -0.000004 0.000000 0.000001 4.677936 7.689761 -43.149993 1.901467 0.667364 -43.734220 0.487087 2.548193 -21.639955 -0.000002 0.000001 0.000006 -0.052656 -8.622228 9.724138 -4.530094 99.807218 17.721363 -0.000001 21.377514 0.000003 -51.314747 -15.189036 -13.921788 4.038192 -6.312187 65.186472 4.038194 -6.312214 65.186465 1.091139 -3.744486 32.481870 0.000000 -0.000002 -0.000003 -1.849240 -3.581798 -6.586144 4.637202 -8.634117 -0.225397 -1.273744 0.137309 -2.094867 -0.000002 -0.000001 -0.000002 4.038197 -6.312188 65.186465 4.038170 -6.312175 65.186478 1.091145 -3.744487 32.481863 0.000004 -0.000001 -0.000001 4.038199 -6.312200 65.186465 4.038185 -6.312206 65.186465 1.091128 -3.744484 32.481870 0.000000 -0.000000 0.000001 4.038188 -6.312184 65.186465 4.038197 -6.312202 65.186458 1.091129 -3.744480 32.481866 0.000001 -0.000001 0.000000 -29.061803 21.912628 11.478444 35.591815 7.283711 10.282101 -7.062710 0.882020 -9.368293 -0.000066 0.000003 -0.000001 0.000000 0.000002 0.000000 -25.080631 -21.810549 -8.903347 36.409440 -4.625802 -10.263836 -10.871799 -1.264869 9.703943 -0.000004 -0.000005 0.000003 -0.000000 0.000000 -0.000000 
0.336271 191.195602 -2.021454 -2.369035 -15.507816 -1.250650 1.746293 2.527786 -0.408463 1.218262 2.127187 -0.455544 1.175870 2.151746 -0.474877 1.274923 -0.001875 3.935156 23.531223 6.348712 1.951825 -0.000001 -0.000000 -0.000000 -0.000001 -0.000000 -0.000000 -0.000001 -0.000000 -0.000000 2.200911 -7.862194 1.260707 -37.294124 -70.148768 -57.939450 0.000007 -23.474660 -0.000001 -99.254656 -4.919571 -9.895722 1.882373 4.734919 -43.341747 1.885025 4.737728 -43.373948 0.487078 2.548183 -21.639948 -0.000001 -0.000003 0.000002 -1.540050 3.690174 6.142344 3.939033 7.948722 0.746808 -0.579462 1.575004 2.538718 -0.000001 -0.000001 0.000002 1.883702 4.736321 -43.357836 1.883693 4.736317 -43.357860 0.487077 2.548188 -21.639941 -0.000000 -0.000000 0.000000 1.883704 4.736338 -43.357839 1.883715 4.736325 -43.357856 0.487074 2.548174 -21.639953 -0.000003 -0.000001 0.000001 4.677939 7.689763 -43.149993 1.901467 0.667363 -43.734220 0.487085 2.548193 -21.639952 -0.000001 -0.000000 0.000002 -0.057546 -8.708157 9.906056 -5.402922 99.884919 18.597149 -0.000003 21.331845 -0.000002 -51.141089 -14.952080 -13.926912 4.038188 -6.312189 65.186472 4.038194 -6.312212 65.186465 1.091137 -3.744489 32.481870 0.000000 0.000002 -0.000003 -1.849244 -3.581796 -6.586142 4.637207 -8.634121 -0.225397 -1.273743 0.137306 -2.094868 0.000000 0.000004 0.000001 4.038190 -6.312188 65.186465 4.038173 -6.312172 65.186478 1.091141 -3.744492 32.481863 -0.000000 -0.000002 -0.000001 4.038193 -6.312202 65.186472 4.038185 -6.312209 65.186465 1.091136 -3.744485 32.481870 -0.000004 0.000002 -0.000001 4.038183 -6.312185 65.186465 4.038198 -6.312206 65.186458 1.091130 -3.744474 32.481866 0.000000 -0.000002 0.000001 -29.056690 21.690335 11.400836 35.600186 7.499638 10.281598 -7.055503 0.900385 -9.437226 -0.000066 0.000005 -0.000001 0.000000 0.000002 0.000000 -25.136542 -21.858726 -8.911537 36.447102 -4.586561 -10.262868 -10.895349 -1.261963 9.684581 -0.000004 -0.000005 0.000003 0.000000 -0.000003 0.000000 
0.319186 191.174118 -2.011279 -2.333898 -15.502646 -1.263157 1.747794 2.543662 -0.426520 1.214249 2.135311 -0.457428 1.171125 2.159985 -0.477033 1.245709 -0.034263 4.008367 23.561489 6.326248 1.935538 0.000000 0.000000 0.000000 0.000000 0.000000 0.000000 0.000000 0.000000 0.000000 2.214289 -7.868442 1.389635 -38.120693 -69.774112 -58.778887 0.000002 -23.511120 0.000005 -99.262497 -4.979400 -10.042981 1.882366 4.734920 -43.341747 1.885027 4.737724 -43.373945 0.487078 2.548180 -21.639947 -0.000000 0.000001 0.000004 -1.540055 3.690173 6.142349 3.939029 7.948720 0.746808 -0.579460 1.574997 2.538722 0.000002 0.000001 -0.000004 1.883699 4.736319 -43.357839 1.883695 4.736316 -43.357856 0.487076 2.548189 -21.639941 -0.000000 0.000001 -0.000004 1.883700 4.736339 -43.357836 1.883713 4.736325 -43.357853 0.487073 2.548176 -21.639953 0.000002 0.000000 -0.000001 4.677930 7.689764 -43.149990 1.901474 0.667363 -43.734220 0.487087 2.548189 -21.639953 -0.000002 -0.000001 -0.000003 -0.067319 -8.838308 10.142933 -6.525506 99.972529 19.732703 0.000004 21.302832 -0.000005 -50.964491 -14.669757 -13.961188 4.038194 -6.312186 65.186472 4.038195 -6.312208 65.186465 1.091136 -3.744484 32.481870 -0.000001 0.000001 -0.000004 -1.849243 -3.581798 -6.586144 4.637205 -8.634119 -0.225399 -1.273748 0.137314 -2.094868 -0.000004 -0.000001 -0.000001 4.038192 -6.312185 65.186465 4.038171 -6.312174 65.186472 1.091140 -3.744495 32.481866 -0.000002 0.000003 -0.000002 4.038191 -6.312201 65.186472 4.038187 -6.312212 65.186465 1.091135 -3.744483 32.481873 0.000000 -0.000002 -0.000000 4.038183 -6.312185 65.186472 4.038197 -6.312198 65.186458 1.091130 -3.744481 32.481866 0.000001 -0.000001 0.000001 -29.058879 21.446396 11.335001 35.625341 7.735501 10.280761 -7.056956 0.920947 -9.515896 -0.000066 0.000007 -0.000001 0.000000 -0.000000 0.000000 -25.177257 -21.871879 -8.887382 36.484227 -4.586189 -10.261896 -10.920494 -1.260972 9.674752 -0.000004 -0.000005 0.000003 -0.000000 0.000002 0.000000 
0.301995 191.156128 -1.997685 -2.312001 -15.495114 -1.278734 1.752025 2.562183 -0.437928 1.214416 2.147258 -0.458482 1.170496 2.172219 -0.478292 1.208864 -0.061435 4.074722 23.679388 6.323809 1.953521 0.000003 -0.000000 -0.000000 0.000003 -0.000000 -0.000000 0.000003 -0.000000 -0.000000 2.233105 -7.894382 1.528284 -38.719461 -69.500098 -59.388017 0.000004 -23.548213 0.000006 -99.234773 -5.026723 -10.131252 1.882375 4.734919 -43.341751 1.885022 4.737723 -43.373942 0.487077 2.548182 -21.639952 -0.000002 0.000002 -0.000000 -1.540049 3.690175 6.142340 3.939032 7.948720 0.746811 -0.579466 1.574999 2.538717 0.000001 -0.000000 0.000000 1.883700 4.736323 -43.357839 1.883697 4.736315 -43.357860 0.487078 2.548184 -21.639938 0.000001 0.000000 0.000000 1.883706 4.736340 -43.357843 1.883718 4.736323 -43.357853 0.487073 2.548177 -21.639953 -0.000002 0.000003 0.000001 4.677940 7.689763 -43.149993 1.901467 0.667363 -43.734217 0.487085 2.548191 -21.639953 0.000000 0.000001 0.000001 -0.077313 -8.968697 10.368287 -7.424393 100.031932 20.668532 0.000001 21.290231 0.000001 -50.748722 -14.395715 -14.022143 4.038192 -6.312187 65.186472 4.038192 -6.312206 65.186465 1.091135 -3.744487 32.481866 -0.000001 -0.000001 -0.000003 -1.849239 -3.581796 -6.586142 4.637205 -8.634120 -0.225400 -1.273747 0.137310 -2.094868 0.000001 0.000003 0.000001 4.038194 -6.312183 65.186465 4.038173 -6.312176 65.186478 1.091141 -3.744493 32.481856 0.000002 0.000001 -0.000002 4.038195 -6.312199 65.186465 4.038185 -6.312210 65.186458 1.091134 -3.744487 32.481870 -0.000003 0.000002 0.000002 4.038187 -6.312183 65.186465 4.038194 -6.312203 65.186458 1.091131 -3.744474 32.481866 -0.000002 0.000002 -0.000002 -29.063531 21.240568 11.329943 35.675987 7.911357 10.208900 -7.075354 0.933697 -9.548402 -0.000066 0.000005 -0.000001 0.000000 0.000002 0.000000 -25.204190 -21.906771 -8.872873 36.516599 -4.566563 -10.261357 -10.945981 -1.258238 9.661149 -0.000004 -0.000007 0.000003 -0.000000 0.000000 0.000000 
0.291559 191.147430 -1.974607 -2.320418 -15.494631 -1.291293 1.763412 2.580275 -0.451211 1.222613 2.161507 -0.461671 1.178031 2.186916 -0.481608 1.178236 -0.078790 4.120486 23.846120 6.335246 1.998471 0.000000 0.000000 0.000000 0.000000 0.000000 0.000000 0.000000 0.000000 0.000000 2.254145 -7.936110 1.641458 -39.100091 -69.300752 -59.777064 -0.000001 -23.587136 -0.000011 -99.112363 -5.056833 -10.121499 1.882374 4.734917 -43.341751 1.885025 4.737726 -43.373942 0.487079 2.548178 -21.639950 -0.000003 -0.000002 0.000004 -1.540050 3.690171 6.142343 3.939032 7.948720 0.746807 -0.579464 1.575003 2.538717 0.000001 0.000002 0.000001 1.883702 4.736321 -43.357843 1.883698 4.736313 -43.357860 0.487082 2.548188 -21.639943 0.000001 0.000001 -0.000002 1.883706 4.736336 -43.357843 1.883712 4.736325 -43.357853 0.487072 2.548179 -21.639950 -0.000000 -0.000001 0.000002 4.677939 7.689760 -43.149990 1.901471 0.667362 -43.734217 0.487089 2.548194 -21.639953 -0.000001 -0.000002 0.000003 -0.083951 -9.063650 10.534110 -7.956640 100.054020 21.253421 -0.000002 21.287859 -0.000006 -50.517397 -14.169972 -14.099128 4.038189 -6.312187 65.186472 4.038191 -6.312213 65.186465 1.091138 -3.744486 32.481866 -0.000003 0.000001 -0.000004 -1.849243 -3.581797 -6.586143 4.637203 -8.634120 -0.225397 -1.273748 0.137309 -2.094865 0.000001 -0.000001 0.000001 4.038192 -6.312186 65.186465 4.038172 -6.312174 65.186478 1.091140 -3.744490 32.481863 0.000005 -0.000000 0.000000 4.038197 -6.312201 65.186465 4.038185 -6.312207 65.186465 1.091132 -3.744485 32.481870 0.000003 -0.000001 -0.000001 4.038182 -6.312184 65.186472 4.038198 -6.312201 65.186458 1.091129 -3.744472 32.481863 0.000000 0.000002 -0.000001 -29.043737 21.124838 11.358566 35.724850 8.004355 10.112050 -7.104515 0.934880 -9.542725 -0.000066 0.000003 -0.000001 -0.000000 -0.000000 0.000000 -25.213843 -22.003938 -8.904016 36.545091 -4.474951 -10.261220 -10.973340 -1.247193 9.633589 -0.000004 -0.000005 0.000003 0.000000 -0.000000 0.000000 
